<!DOCTYPE svg PUBLIC "-//W3C//DTD SVG 20010904//EN" "http://www.w3.org/TR/2001/REC-SVG-20010904/DTD/svg10.dtd">
<svg version="1.0" xmlns="http://www.w3.org/2000/svg" width="462px" height="462px" viewBox="0 0 4620 4620" preserveAspectRatio="xMidYMid meet">
<g id="layer101" fill="#444444" stroke="none">
 <path d="M145 4601 c-52 -23 -103 -74 -126 -126 -18 -38 -19 -128 -19 -2165 0 -2037 1 -2127 19 -2165 23 -52 74 -103 126 -126 38 -18 128 -19 2165 -19 2037 0 2127 1 2165 19 52 23 103 74 126 126 18 38 19 128 19 2165 0 2037 -1 2127 -19 2165 -23 52 -74 103 -126 126 -38 18 -128 19 -2165 19 -2037 0 -2127 -1 -2165 -19z"/>
 </g>
<g id="layer102" fill="#ffffff" stroke="none">
 <path d="M3967 4030 c-107 -18 -2357 -554 -2357 -562 0 -4 9 -8 20 -8 19 0 20 -7 20 -160 l0 -160 -275 0 c-151 0 -275 -4 -275 -8 0 -18 39 -120 65 -172 31 -61 83 -140 201 -305 152 -212 218 -349 260 -545 29 -131 27 -442 -4 -565 -32 -127 -91 -241 -157 -304 -41 -39 -49 -51 -37 -55 65 -18 2473 -581 2532 -592 279 -50 519 45 617 244 l38 76 3 1350 c3 1484 5 1433 -57 1541 -100 175 -344 267 -594 225z m-1533 -595 c100 -48 191 -189 236 -365 30 -119 39 -380 16 -499 -21 -111 -65 -204 -128 -268 l-51 -51 35 -31 c43 -38 91 -125 114 -211 26 -93 27 -393 1 -501 -36 -154 -118 -278 -212 -324 -51 -24 -143 -31 -201 -15 -96 27 -190 146 -244 310 -29 85 -60 262 -60 339 l0 41 85 0 c47 0 85 -3 85 -8 0 -4 5 -44 10 -89 19 -146 65 -244 132 -279 40 -21 125 -15 161 12 69 49 106 215 87 389 -19 170 -82 245 -207 245 l-53 0 0 135 0 135 43 0 c167 0 241 112 241 365 -1 129 -15 198 -57 279 -52 98 -142 135 -226 91 -69 -35 -126 -171 -139 -330 l-7 -90 -87 -3 -88 -3 0 57 c0 85 28 258 57 354 53 177 134 287 240 326 52 19 167 13 217 -11z m1050 0 c100 -48 191 -189 236 -365 30 -119 39 -380 16 -499 -21 -111 -65 -204 -128 -268 l-51 -51 35 -31 c43 -38 91 -125 114 -211 26 -93 27 -393 1 -501 -36 -154 -118 -278 -212 -324 -51 -24 -143 -31 -201 -15 -96 27 -190 146 -244 310 -29 85 -60 262 -60 339 l0 41 85 0 c47 0 85 -3 85 -8 0 -4 5 -44 10 -89 19 -146 65 -244 132 -279 40 -21 125 -15 161 12 69 49 106 215 87 389 -19 170 -82 245 -207 245 l-53 0 0 135 0 135 43 0 c167 0 241 112 241 365 -1 129 -15 198 -57 279 -52 98 -142 135 -226 91 -69 -35 -126 -171 -139 -330 l-7 -90 -87 -3 -88 -3 0 57 c0 85 28 258 57 354 53 177 134 287 240 326 52 19 167 13 217 -11z"/>
 <path d="M695 3259 c-340 -90 -612 -235 -675 -360 -19 -37 -20 -63 -20 -599 l0 -560 25 -40 c58 -92 270 -215 500 -290 106 -34 484 -130 514 -130 4 0 -13 42 -39 94 -75 150 -115 324 -122 536 l-3 105 90 0 90 0 7 -105 c15 -205 65 -367 129 -413 64 -46 169 -24 216 45 77 115 77 417 -1 616 -32 80 -80 161 -196 327 -134 191 -166 244 -216 349 -50 106 -87 228 -104 341 -17 116 -19 125 -33 124 -6 0 -79 -18 -162 -40z"/>
 </g>

</svg>